<?xml version="1.0"?>
<svg xmlns="http://www.w3.org/2000/svg" viewBox="0 0 64 64" width="512" height="512"><g id="Glyph"><path d="M15,24a8.93,8.93,0,0,0,5.221-1.68.992.992,0,0,1,.72-.176l3.857.539L23.03,20.265a1,1,0,0,1-.076-1.058A8.9,8.9,0,0,0,24,15a9,9,0,1,0-9,9ZM9.326,10.265a4.384,4.384,0,0,1,5.685-.547,4.417,4.417,0,0,1,5.663.547,4.518,4.518,0,0,1,0,6.478l-5.034,4.12a1,1,0,0,1-1.266,0L9.368,16.779a4.513,4.513,0,0,1-.042-6.514Z"/><path d="M15.005,18.8l4.362-3.568a2.359,2.359,0,0,0,.675-1.727,2.364,2.364,0,0,0-.716-1.76,2.5,2.5,0,0,0-3.646-.01,1,1,0,0,1-1.374-.013,2.5,2.5,0,0,0-1.755-.8,2.916,2.916,0,0,0-1.877.823,2.524,2.524,0,0,0,0,3.522Z"/><path d="M15.512,35a8.537,8.537,0,0,1,3.375,3.847c.794,2.028.459,4.252-1,6.611-.276.674-2.537,6.4-2.012,11.542h4.873C22.385,56.131,26,53.652,26,51V48.816A3,3,0,0,1,24,46c0-.037.01-.071.011-.108a12.591,12.591,0,0,0-4.3,2.815l-1.414-1.414a14.817,14.817,0,0,1,7.434-4A2.971,2.971,0,0,1,27,43V39.29A4.294,4.294,0,0,0,22.71,35Zm10.043,4.168-1.1,1.668A1.927,1.927,0,0,0,23,40.567c-.56.221-.868,1.033-1.029,1.676l-1.94-.486A4.019,4.019,0,0,1,22.284,38.7,3.832,3.832,0,0,1,25.555,39.168Z"/><path d="M16.152,44.47c1.136-1.818,1.431-3.463.874-4.89-.97-2.487-4.2-3.887-5.616-4.393L6,43.3V53a.852.852,0,0,1-.008.124,1.866,1.866,0,0,0,1.359,1.939q.05.019.1.042L11.236,57h2.63c-.53-5.9,2.1-12.116,2.215-12.394A1.035,1.035,0,0,1,16.152,44.47Zm-1.7-.633a2.353,2.353,0,0,0-1.7-.271A3.27,3.27,0,0,0,10.9,45.447l-1.79-.894a5.113,5.113,0,0,1,3.15-2.924,4.281,4.281,0,0,1,3.3.539Z"/><path d="M24.353,57h.486l3.983-1.135a3,3,0,0,0,1.982-1.84,7.876,7.876,0,0,0-2.975-1.719A9.585,9.585,0,0,1,24.353,57Z"/><path d="M28,48.816V50.25a13.062,13.062,0,0,1,3,1.371V48a2.982,2.982,0,0,0-1.024-2.24c.006.081.024.158.024.24A3,3,0,0,1,28,48.816Z"/><path d="M10,33.633V31c0-1.9-2.5-2-3-2a3.262,3.262,0,0,0-2.441,1.061,2.245,2.245,0,0,0-.568,1.807l1.548,8.506Z"/><path d="M19,29a3,3,0,0,0-3,3v1h6V32A3,3,0,0,0,19,29Z"/><circle cx="27" cy="46" r="1"/><path d="M52,48a2.845,2.845,0,0,0,2.93-2.1c.229-1.19-.632-2.3-2.3-2.967a11.1,11.1,0,0,1-3.973-2.561,2.976,2.976,0,0,1-5.31,0,11.1,11.1,0,0,1-3.973,2.561c-1.67.668-2.531,1.777-2.3,2.967A2.845,2.845,0,0,0,40,48h2.5l2.7-3.6a1.036,1.036,0,0,1,1.6,0L49.5,48Z"/><path d="M34,38a.808.808,0,0,1-.01.16l-1,6a1.851,1.851,0,0,0,1.36,1.9c.03.02.81.4.81.4-.01-.06-.04-.12-.05-.19-.33-1.7.42-3.96,3.52-5.2a9.187,9.187,0,0,0,4.22-3.18,3.57,3.57,0,0,1,6.3,0,9.187,9.187,0,0,0,4.22,3.18c3.1,1.24,3.85,3.5,3.52,5.2-.01.07-.04.13-.05.19l.71-.35c.03-.02.07-.03.1-.05a1.867,1.867,0,0,0,1.36-1.94l-1-5.96A.808.808,0,0,1,58,38V34.3L52.46,26H39.54L34,34.32Zm19-4a3.009,3.009,0,0,1,3,3H54a1,1,0,0,0-2,0H50A3.009,3.009,0,0,1,53,34ZM39,34a3.009,3.009,0,0,1,3,3H40a1,1,0,0,0-2,0H36A3.009,3.009,0,0,1,39,34Z"/><path d="M38,24.633V23.015a2.944,2.944,0,0,0-.864-2.116A3,3,0,0,0,32,23.015v6a6.368,6.368,0,0,0,.942,3.26Z"/><circle cx="46" cy="39" r="1"/><path d="M44,49.333V52a2,2,0,0,0,4,0V49.333l-2-2.666Z"/><path d="M57.005,20a3.008,3.008,0,0,0-2.157.893,2.927,2.927,0,0,0-.857,2.1L54,24.7l5.053,7.572A6.425,6.425,0,0,0,60,29V23A3,3,0,0,0,57.005,20Z"/></g></svg>
