<svg xmlns="http://www.w3.org/2000/svg" viewBox="0 0 48 48"><defs><style>.cls-1{fill:#e0fde0;}.cls-2{fill:#c5e6c5;}</style></defs><g id="Layer_2" data-name="Layer 2"><g id="Layer_1-2" data-name="Layer 1"><path class="cls-1" d="M41.56,0H6.5A6.47,6.47,0,0,0,0,6.44V41.53A6.47,6.47,0,0,0,6.47,48H20.58a3.21,3.21,0,0,0,3.21-3.21h0V31.25a.4.4,0,0,0-.4-.4h-4a1,1,0,0,1-1.05-1V24.27a1,1,0,0,1,1-1.05h4.15a.4.4,0,0,0,.4-.4V17.87c0-6.2,3.79-9.57,9.32-9.57h4.53a1.06,1.06,0,0,1,1.06,1V14a1.06,1.06,0,0,1-1.06,1h-2.8c-3,0-3.59,1.43-3.59,3.53v4.23a.4.4,0,0,0,.4.4h6.21a1,1,0,0,1,1,1,.55.55,0,0,1,0,.18l-.65,5.53a1.07,1.07,0,0,1-1,.93H31.7a.4.4,0,0,0-.4.4h0V44.72A3.22,3.22,0,0,0,34.46,48h7.1A6.47,6.47,0,0,0,48,41.53V6.47A6.47,6.47,0,0,0,41.56,0Z"/><path class="cls-2" d="M48,18.68,38.7,9.35h0V14a1.06,1.06,0,0,1-1.06,1H34.86c-3,0-3.59,1.43-3.59,3.53v4.23a.4.4,0,0,0,.4.4h6.21a1,1,0,0,1,1,1,.55.55,0,0,1,0,.18l-.65,5.53a1.07,1.07,0,0,1-1,.93H31.7a.4.4,0,0,0-.4.4h0V44.72A3.22,3.22,0,0,0,34.46,48h7.1A6.47,6.47,0,0,0,48,41.53Z"/><path class="cls-2" d="M23.81,35.81V31.25a.4.4,0,0,0-.4-.4H19.36a1,1,0,0,1-.65-.25l-.05.06Z"/></g></g></svg>